<svg xmlns="http://www.w3.org/2000/svg" viewBox="0 0 512 512">
  <rect width="512" height="512" rx="112" fill="#fffaf5"/>
  <circle cx="146" cy="132" r="58" fill="#4d9a8c" opacity=".22"/>
  <circle cx="372" cy="384" r="72" fill="#e1aa58" opacity=".2"/>
  <path fill="#d95f67" d="M256 394s-144-82-144-184c0-57 43-96 93-96 32 0 56 16 71 39 15-23 39-39 71-39 50 0 93 39 93 96 0 102-144 184-184 184Z"/>
  <path fill="#fffaf5" d="M184 216c0-24 18-42 41-42 14 0 26 7 34 19 8-12 20-19 34-19 23 0 41 18 41 42 0 44-62 82-75 90-13-8-75-46-75-90Z" opacity=".92"/>
  <path fill="#4d9a8c" d="M158 350c62-44 132-69 209-78 10-1 18 7 18 17 0 8-6 15-14 16-73 9-137 33-196 74-8 6-20 3-25-5-5-9-2-19 8-24Z"/>
</svg>
